<svg width="118" height="118" viewBox="0 0 118 118" fill="none" xmlns="http://www.w3.org/2000/svg">
<path d="M93.4167 14.75H24.5833C19.1525 14.75 14.75 19.1525 14.75 24.5833V93.4167C14.75 98.8475 19.1525 103.25 24.5833 103.25H93.4167C98.8475 103.25 103.25 98.8475 103.25 93.4167V24.5833C103.25 19.1525 98.8475 14.75 93.4167 14.75Z" stroke="#D6AB5F" stroke-width="5" stroke-linecap="round" stroke-linejoin="round"/>
<path d="M73.7501 54.0834C79.1809 54.0834 83.5834 49.6809 83.5834 44.2501C83.5834 38.8193 79.1809 34.4167 73.7501 34.4167C68.3193 34.4167 63.9167 38.8193 63.9167 44.2501C63.9167 49.6809 68.3193 54.0834 73.7501 54.0834Z" stroke="#D6AB5F" stroke-width="5" stroke-linecap="round" stroke-linejoin="round"/>
<path d="M14.75 88.5L44.25 59L88.5 103.25" stroke="#D6AB5F" stroke-width="5" stroke-linecap="round" stroke-linejoin="round"/>
</svg>