<svg width="60" height="60" viewBox="0 0 60 60" fill="none" xmlns="http://www.w3.org/2000/svg">
<path d="M24.0816 44.5C24.0816 45.8071 23.6559 47.0607 22.8981 47.985C22.1403 48.9093 21.1125 49.4286 20.0408 49.4286C18.9691 49.4286 17.9413 48.9093 17.1835 47.985C16.4257 47.0607 16 45.8071 16 44.5C16 43.1929 16.4257 41.9393 17.1835 41.015C17.9413 40.0907 18.9691 39.5714 20.0408 39.5714C21.1125 39.5714 22.1403 40.0907 22.8981 41.015C23.6559 41.9393 24.0816 43.1929 24.0816 44.5ZM24.0816 44.5V15.7492L44.2857 10V38.7508M24.0816 25.6063L44.2857 19.8571M44.2857 39.5714C44.2857 40.8786 43.86 42.1322 43.1022 43.0565C42.3444 43.9807 41.3166 44.5 40.2449 44.5C39.1732 44.5 38.1454 43.9807 37.3876 43.0565C36.6298 42.1322 36.2041 40.8786 36.2041 39.5714C36.2041 38.2643 36.6298 37.0107 37.3876 36.0864C38.1454 35.1621 39.1732 34.6429 40.2449 34.6429C41.3166 34.6429 42.3444 35.1621 43.1022 36.0864C43.86 37.0107 44.2857 38.2643 44.2857 39.5714Z" stroke="#D6AB5F" stroke-width="4" stroke-linecap="round" stroke-linejoin="round"/>
</svg>