<svg width="60" height="60" viewBox="0 0 60 60" fill="none" xmlns="http://www.w3.org/2000/svg">
<path d="M30 10C32.6522 10 35.1957 11.0536 37.0711 12.9289C38.9464 14.8043 40 17.3478 40 20C40 22.6522 38.9464 25.1957 37.0711 27.0711C35.1957 28.9464 32.6522 30 30 30C27.3478 30 24.8043 28.9464 22.9289 27.0711C21.0536 25.1957 20 22.6522 20 20C20 17.3478 21.0536 14.8043 22.9289 12.9289C24.8043 11.0536 27.3478 10 30 10ZM30 15C28.6739 15 27.4021 15.5268 26.4645 16.4645C25.5268 17.4021 25 18.6739 25 20C25 21.3261 25.5268 22.5979 26.4645 23.5355C27.4021 24.4732 28.6739 25 30 25C31.3261 25 32.5979 24.4732 33.5355 23.5355C34.4732 22.5979 35 21.3261 35 20C35 18.6739 34.4732 17.4021 33.5355 16.4645C32.5979 15.5268 31.3261 15 30 15ZM30 32.5C36.675 32.5 50 35.825 50 42.5V50H10V42.5C10 35.825 23.325 32.5 30 32.5ZM30 37.25C22.575 37.25 14.75 40.9 14.75 42.5V45.25H45.25V42.5C45.25 40.9 37.425 37.25 30 37.25Z" fill="#D6AB5F"/>
</svg>